<svg xmlns="http://www.w3.org/2000/svg" width="11" height="11" viewBox="0 0 2.91 2.91"><path d="M0 0h.265v1.323H0zM1.058 0h.265v1.323h-.265z"/><path d="M0 1.058h1.323v.265H0zM.529.529h.265v.265H.529zM0 0h1.323v.265H0zM1.588 0h.265v1.323h-.265zM2.646 0h.265v1.323h-.265z"/><path d="M1.588 1.058h1.323v.265H1.588zM2.117.529h.265v.265h-.265zM1.588 0h1.323v.265H1.588zM0 1.588h.265v1.323H0zM1.058 1.588h.265v1.323h-.265z"/><path d="M0 2.646h1.323v.265H0zM.529 2.117h.265v.265H.529zM0 1.588h1.323v.265H0zM2.381 1.587h.529v.265h-.529z"/><path d="M2.646 1.587h.265v.529h-.265zM1.587 2.646h.529v.265h-.529zM1.587 1.587h.265v.529h-.265zM1.852 2.117h.265v.265h-.265zM2.117 2.381h.265v.265h-.265zM2.381 2.646h.265v.265h-.265zM2.646 2.381h.265v.265h-.265zM2.117 1.852h.265v.265h-.265z"/></svg>